PathFileType	4	(X/Y/Z)	c:/Users/goper/Files/vsCode/490R/osim_files/C08/C08_Fast_06.trc
DataRate	CameraRate	NumFrames	NumMarkers	Units                	OrigDataRate	OrigDataStartFrame	OrigNumFrames
250.00	250.00	11	36	mm	250.0	550	2198
                Frame#	Time	LPSIS			LASIS			LTH1			LTH2			LTH3			LTH4			LLFE			LMFE			LSH1			LSH2			LSH3			LSH4			LLMAL			LMMAL			LCAL			LMTP5			LTOE			LMTP1			RPSIS			RASIS			RTH1			RTH2			RTH3			RTH4			RLFE			RMFE			RSH1			RSH2			RSH3			RSH4			RLMAL			RMMAL			RCAL			RMTP1			RTOE			RMTP5		
		X1	Y1	Z1	X2	Y2	Z2	X3	Y3	Z3	X4	Y4	Z4	X5	Y5	Z5	X6	Y6	Z6	X7	Y7	Z7	X8	Y8	Z8	X9	Y9	Z9	X10	Y10	Z10	X11	Y11	Z11	X12	Y12	Z12	X13	Y13	Z13	X14	Y14	Z14	X15	Y15	Z15	X16	Y16	Z16	X17	Y17	Z17	X18	Y18	Z18	X19	Y19	Z19	X20	Y20	Z20	X21	Y21	Z21	X22	Y22	Z22	X23	Y23	Z23	X24	Y24	Z24	X25	Y25	Z25	X26	Y26	Z26	X27	Y27	Z27	X28	Y28	Z28	X29	Y29	Z29	X30	Y30	Z30	X31	Y31	Z31	X32	Y32	Z32	X33	Y33	Z33	X34	Y34	Z34	X35	Y35	Z35	X36	Y36	Z36

550	2.19600	2128.81055	1048.04187	177.49922	1940.37842	1000.19629	289.25021	2016.81030	724.71533	356.69879	2001.52539	644.91571	345.90903	1993.31677	572.52179	346.80771	0.00000	0.00000	0.00000	1992.97278	525.38147	342.49817	0.00000	0.00000	0.00000	2092.01758	480.21811	340.80551	2128.67578	448.26801	340.69147	2051.90601	434.51422	348.99612	0.00000	0.00000	0.00000	0.00000	0.00000	0.00000	1794.18030	544.21344	222.90422	0.00000	0.00000	0.00000	0.00000	0.00000	0.00000	2027.05334	504.40460	34.02932	0.00000	0.00000	0.00000	2121.34863	1049.30090	117.70022	0.00000	0.00000	0.00000	0.00000	0.00000	0.00000	0.00000	0.00000	0.00000	2294.57373	258.36282	185.12946	0.00000	0.00000	0.00000	2433.80884	380.77328	277.12854	0.00000	0.00000	0.00000	0.00000	0.00000	0.00000	1949.18738	399.63788	18.73747	0.00000	0.00000	0.00000	1898.88831	400.06677	34.56276	0.00000	0.00000	0.00000	1940.83215	109.92731	175.73767	2026.88647	82.50296	153.47227	1809.71326	52.90325	167.60605	1791.86426	73.10699	115.84229	1839.79626	53.71904	53.79303
551	2.20000	2123.72119	1049.11145	177.44933	1935.82629	1001.17932	289.11197	2009.00989	725.86652	356.67001	1992.79541	646.12964	345.87683	1983.90674	573.83496	346.77771	0.00000	0.00000	0.00000	1983.04358	526.87177	342.60883	0.00000	0.00000	0.00000	2081.32544	481.63370	340.76633	2118.20459	449.91431	341.22833	2041.14514	436.21616	349.42664	0.00000	0.00000	0.00000	0.00000	0.00000	0.00000	1784.77466	545.96106	223.00098	0.00000	0.00000	0.00000	0.00000	0.00000	0.00000	2025.85083	504.36447	33.80402	0.00000	0.00000	0.00000	2116.30200	1050.31384	117.62189	1923.64624	1018.31049	49.42054	0.00000	0.00000	0.00000	0.00000	0.00000	0.00000	0.00000	0.00000	0.00000	0.00000	0.00000	0.00000	2423.06104	380.98514	277.58588	0.00000	0.00000	0.00000	0.00000	0.00000	0.00000	1948.39038	399.78381	18.60418	0.00000	0.00000	0.00000	0.00000	0.00000	0.00000	0.00000	0.00000	0.00000	1940.67249	110.05914	175.65660	2026.88135	82.65363	153.43898	1809.70190	52.91588	167.55313	1791.80872	73.03616	115.74841	1839.82739	53.69339	53.71892
552	2.20400	2118.61304	1050.15491	177.43222	1931.35303	1002.24170	288.90329	1998.05359	724.56891	354.64624	1984.20447	647.41565	345.92651	1973.15747	573.95258	345.71814	0.00000	0.00000	0.00000	1973.15320	528.42957	342.73734	0.00000	0.00000	0.00000	2070.80249	483.06583	340.80386	2107.79175	451.49347	341.75507	2030.50269	437.89767	349.86145	0.00000	0.00000	0.00000	0.00000	0.00000	0.00000	1775.50598	547.68646	223.12210	0.00000	0.00000	0.00000	0.00000	0.00000	0.00000	2024.71423	504.32831	33.62988	0.00000	0.00000	0.00000	2111.28052	1051.32483	117.59705	1918.43018	1018.86841	48.88058	0.00000	0.00000	0.00000	0.00000	0.00000	0.00000	0.00000	0.00000	0.00000	2271.35132	258.08768	186.23317	2412.18628	380.92218	278.03275	0.00000	0.00000	0.00000	0.00000	0.00000	0.00000	1947.62231	399.95511	18.54475	0.00000	0.00000	0.00000	1898.07214	400.54868	34.59870	0.00000	0.00000	0.00000	1940.52966	110.19400	175.59961	2026.86670	82.78637	153.40886	1809.65588	52.88637	167.48936	1791.76709	72.98177	115.66598	1839.81726	53.63825	53.66664
553	2.20800	2113.51562	1051.19629	177.47740	1932.62012	1001.83801	288.10144	1993.35828	728.23956	356.70718	1975.43958	648.58868	345.94913	1965.23987	576.65546	346.84073	0.00000	0.00000	0.00000	1963.25354	529.86578	342.82672	0.00000	0.00000	0.00000	2060.39551	484.44464	340.86688	2097.37280	452.85361	342.28915	2019.84351	439.43134	350.29184	0.00000	0.00000	0.00000	0.00000	0.00000	0.00000	1766.25720	549.39716	223.19051	0.00000	0.00000	0.00000	2023.63708	504.28668	33.48560	0.00000	0.00000	0.00000	0.00000	0.00000	0.00000	2106.29224	1052.30554	117.61607	0.00000	0.00000	0.00000	0.00000	0.00000	0.00000	0.00000	0.00000	0.00000	1904.90771	399.38934	33.12525	0.00000	0.00000	0.00000	2401.26416	380.61899	278.46405	0.00000	0.00000	0.00000	0.00000	0.00000	0.00000	1946.90674	400.09714	18.44506	0.00000	0.00000	0.00000	0.00000	0.00000	0.00000	0.00000	0.00000	0.00000	1940.38440	110.28600	175.57004	2026.79028	82.82987	153.37495	1809.52954	52.49283	167.62697	1791.71167	72.91343	115.59486	1839.78406	53.59256	53.59528
554	2.21200	2108.44775	1052.18896	177.55093	1927.62866	1003.06110	287.90921	1985.38904	729.31055	356.74173	1966.89502	649.96924	346.08295	1955.91003	578.03278	346.91574	0.00000	0.00000	0.00000	1953.46741	531.38153	342.99683	0.00000	0.00000	0.00000	2050.09985	485.67685	340.95157	2087.08398	454.16794	342.74966	2009.35388	441.05679	350.74234	0.00000	0.00000	0.00000	0.00000	0.00000	0.00000	1757.10181	551.20746	223.18324	0.00000	0.00000	0.00000	0.00000	0.00000	0.00000	2022.51538	504.18051	33.34085	0.00000	0.00000	0.00000	2101.32666	1053.27185	117.69230	0.00000	0.00000	0.00000	0.00000	0.00000	0.00000	0.00000	0.00000	0.00000	1904.23535	399.37714	32.89231	0.00000	0.00000	0.00000	2390.25977	380.04251	278.94907	0.00000	0.00000	0.00000	0.00000	0.00000	0.00000	1946.29224	400.27402	18.40627	0.00000	0.00000	0.00000	0.00000	0.00000	0.00000	0.00000	0.00000	0.00000	1940.27686	110.39526	175.56819	2026.77551	82.93170	153.39429	1809.06604	52.27972	167.78186	1791.70288	72.86092	115.54129	1839.80676	53.58594	53.55287
555	2.21600	2103.40186	1053.18604	177.67368	1922.68176	1004.33850	287.63062	1977.43079	730.40082	356.83041	1958.17419	651.20312	346.15356	1945.12463	578.09338	345.82434	0.00000	0.00000	0.00000	1943.72449	532.86267	343.12613	0.00000	0.00000	0.00000	2039.80078	486.73761	341.00476	2076.78052	455.36188	343.10614	1998.90369	442.50760	351.17267	0.00000	0.00000	0.00000	0.00000	0.00000	0.00000	1748.01074	553.08337	223.22205	0.00000	0.00000	0.00000	1904.88086	1020.63733	47.24182	0.00000	0.00000	0.00000	0.00000	0.00000	0.00000	2096.38452	1054.22583	117.82843	0.00000	0.00000	0.00000	0.00000	0.00000	0.00000	2235.94043	256.32928	187.78926	0.00000	0.00000	0.00000	2209.26855	192.66316	200.31886	0.00000	0.00000	0.00000	1920.79309	530.33490	164.54916	0.00000	0.00000	0.00000	1945.69214	400.46661	18.38861	0.00000	0.00000	0.00000	1896.02209	400.49951	33.94469	0.00000	0.00000	0.00000	1940.16455	110.50024	175.55077	2026.71790	82.98369	153.40155	1809.07642	52.25488	167.74585	1792.16675	73.03902	115.98582	1839.80774	53.57669	53.49990
556	2.22000	2098.37402	1054.13916	177.82530	1917.73511	1005.56976	287.33453	1969.57227	731.62140	356.95169	1949.49219	652.39783	346.23184	1935.76794	579.49927	345.88263	0.00000	0.00000	0.00000	1933.96667	534.30707	343.26370	0.00000	0.00000	0.00000	2029.68835	487.82336	341.08911	2066.45728	456.29907	343.36227	1989.24841	444.37317	352.11255	0.00000	0.00000	0.00000	0.00000	0.00000	0.00000	1738.98730	554.96924	223.26141	0.00000	0.00000	0.00000	0.00000	0.00000	0.00000	2020.49744	504.00848	33.12868	0.00000	0.00000	0.00000	2091.44995	1055.10461	117.98949	1900.09351	1021.33356	46.71676	0.00000	0.00000	0.00000	0.00000	0.00000	0.00000	0.00000	0.00000	0.00000	2196.71143	190.83458	200.31845	0.00000	0.00000	0.00000	1916.77588	528.27777	164.13635	0.00000	0.00000	0.00000	1945.10706	400.61340	18.36350	0.00000	0.00000	0.00000	1895.49646	400.44547	33.83064	0.00000	0.00000	0.00000	1940.04395	110.57690	175.56648	2026.68665	83.07637	153.45119	1808.88379	52.42207	167.48447	1792.19336	72.99572	115.99873	1839.76318	53.53480	53.46496
557	2.22400	2093.32617	1055.07385	177.98778	1912.51599	1006.85608	287.04825	1961.65625	732.81622	357.09576	1940.88208	653.77191	346.41043	1926.52576	580.98529	346.02972	0.00000	0.00000	0.00000	1924.26721	535.78827	343.41208	0.00000	0.00000	0.00000	2019.66760	488.76401	341.20029	2056.18115	457.23557	343.62186	1978.16406	445.28836	351.79672	0.00000	0.00000	0.00000	0.00000	0.00000	0.00000	1729.99573	556.87750	223.21178	0.00000	0.00000	0.00000	1895.11694	1022.10358	46.28162	0.00000	0.00000	0.00000	0.00000	0.00000	0.00000	2086.51807	1055.99146	118.17066	0.00000	0.00000	0.00000	0.00000	0.00000	0.00000	2211.80591	254.09290	188.94234	0.00000	0.00000	0.00000	2184.18262	188.83139	200.38971	0.00000	0.00000	0.00000	1915.66125	528.24982	164.00449	1953.34985	447.39508	20.48862	1944.55847	400.77441	18.34086	0.00000	0.00000	0.00000	1895.16846	400.37323	33.65802	0.00000	0.00000	0.00000	1939.91284	110.63813	175.59808	2026.60974	83.11466	153.44118	1809.35669	52.21191	167.36433	1791.65405	72.65745	115.44923	1839.74646	53.52378	53.44518
558	2.22800	2088.32520	1055.94739	178.18936	1907.13489	1008.19690	286.75598	1953.74402	734.01508	357.29593	1932.32166	655.15021	346.62943	1917.25391	582.46234	346.17743	0.00000	0.00000	0.00000	1915.26648	538.00079	343.74057	0.00000	0.00000	0.00000	2009.78992	489.74591	341.33224	0.00000	0.00000	0.00000	1967.87036	446.56833	352.03879	0.00000	0.00000	0.00000	0.00000	0.00000	0.00000	1720.90491	558.73303	223.11516	0.00000	0.00000	0.00000	0.00000	0.00000	0.00000	1901.09180	399.48370	32.46275	0.00000	0.00000	0.00000	2081.59497	1056.82849	118.36539	1890.31885	1022.78986	46.00138	0.00000	0.00000	0.00000	2199.61865	252.69673	189.54774	0.00000	0.00000	0.00000	2171.51367	186.58823	200.48981	0.00000	0.00000	0.00000	1914.74951	528.46936	163.98213	1952.69092	447.46069	20.48444	1944.00964	400.91565	18.34332	0.00000	0.00000	0.00000	0.00000	0.00000	0.00000	0.00000	0.00000	0.00000	1939.77319	110.72034	175.64705	2026.59070	83.25780	153.50006	1809.45044	52.69596	167.27950	1791.58728	72.58185	115.41563	1839.63257	53.42987	53.40530
559	2.23200	2083.32886	1056.80457	178.38977	1901.56519	1009.53076	286.46341	1945.87219	735.27051	357.55109	1923.76038	656.50452	346.88940	1908.18188	584.11432	346.48233	0.00000	0.00000	0.00000	1904.97156	538.79718	343.70581	0.00000	0.00000	0.00000	1999.93298	490.56082	341.43387	0.00000	0.00000	0.00000	1957.60327	447.79480	352.23212	0.00000	0.00000	0.00000	0.00000	0.00000	0.00000	1711.96619	560.69727	222.94608	0.00000	0.00000	0.00000	2204.98218	133.37381	303.82693	0.00000	0.00000	0.00000	0.00000	0.00000	0.00000	2076.66455	1057.60913	118.58736	0.00000	0.00000	0.00000	0.00000	0.00000	0.00000	2187.38696	251.17519	190.13086	0.00000	0.00000	0.00000	2158.84302	184.18994	200.66844	0.00000	0.00000	0.00000	1913.89490	528.75482	163.96872	1951.97070	447.65579	20.45519	1943.44263	401.05627	18.33554	0.00000	0.00000	0.00000	0.00000	0.00000	0.00000	0.00000	0.00000	0.00000	1939.60046	110.80972	175.60246	2026.09705	83.01682	153.48749	1809.20251	52.40823	167.10645	1791.53540	72.52962	115.37705	1839.62573	53.43090	53.40472
560	2.23600	2078.39038	1057.59106	178.58096	0.00000	0.00000	0.00000	1938.01062	736.55261	357.79269	1915.17224	657.83789	347.12146	1898.83301	585.51715	346.58987	0.00000	0.00000	0.00000	1896.16602	541.09033	343.96350	0.00000	0.00000	0.00000	1990.06335	491.18872	341.49274	0.00000	0.00000	0.00000	1947.39893	449.00500	352.43668	0.00000	0.00000	0.00000	0.00000	0.00000	0.00000	1703.08350	562.72943	222.79053	0.00000	0.00000	0.00000	2190.84619	132.26788	305.26120	0.00000	0.00000	0.00000	0.00000	0.00000	0.00000	2071.76489	1058.36975	118.83437	1896.53357	1010.80945	286.10361	0.00000	0.00000	0.00000	2174.99292	249.50552	190.75400	0.00000	0.00000	0.00000	2146.03760	181.53125	200.83118	0.00000	0.00000	0.00000	1913.00122	529.04095	163.96895	1951.46716	447.84167	20.46176	1942.85742	401.21530	18.32447	0.00000	0.00000	0.00000	0.00000	0.00000	0.00000	0.00000	0.00000	0.00000	1939.32104	110.93787	175.49774	2023.91858	79.65382	153.39319	1809.36536	52.65212	167.24168	1792.02222	72.76104	115.89234	1839.58264	53.41520	53.38469
